<?xml version="1.0" encoding="utf-8"?>
<!-- Generator: Adobe Illustrator 24.0.3, SVG Export Plug-In . SVG Version: 6.00 Build 0)  -->
<svg version="1.1" id="Layer_1" xmlns="http://www.w3.org/2000/svg" xmlns:xlink="http://www.w3.org/1999/xlink" x="0px" y="0px"
	 viewBox="0 0 661 661" style="enable-background:new 0 0 661 661;" xml:space="preserve">
<style type="text/css">
	.st0{fill:#66CEF6;}
</style>
<path class="st0" d="M210.1,284.3c12.3,0,21.4,3,27.3,9.1c6,6.1,8.9,15.3,8.9,27.7v44c0,3.2-1,5.8-2.9,7.7c-1.9,1.9-4.6,2.8-7.9,2.8
	c-3.1,0-5.7-1-7.7-2.9c-2-1.9-3-4.5-3-7.6v-4c-2,4.7-5.3,8.4-9.7,11c-4.4,2.6-9.5,4-15.2,4c-5.9,0-11.3-1.2-16.1-3.6
	c-4.8-2.4-8.6-5.7-11.4-9.9c-2.8-4.2-4.2-8.9-4.2-14.1c0-6.5,1.7-11.6,5-15.3c3.3-3.7,8.7-6.4,16.2-8.1c7.5-1.7,17.7-2.5,30.9-2.5
	h4.5v-4.2c0-5.9-1.3-10.2-3.8-12.9c-2.5-2.7-6.6-4.1-12.3-4.1c-3.5,0-7,0.5-10.6,1.5c-3.6,1-7.9,2.5-12.8,4.4
	c-3.1,1.6-5.4,2.3-6.9,2.3c-2.2,0-3.9-0.8-5.3-2.3c-1.4-1.6-2.1-3.6-2.1-6.1c0-2,0.5-3.8,1.5-5.3c1-1.5,2.7-2.9,5.1-4.2
	c4.2-2.3,9.2-4.1,15.1-5.4C198.7,285,204.4,284.3,210.1,284.3z M204.5,359.9c6,0,10.9-2,14.7-6c3.8-4,5.7-9.2,5.7-15.6v-3.8h-3.2
	c-8.1,0-14.3,0.4-18.8,1.1c-4.5,0.7-7.6,2-9.6,3.8c-1.9,1.8-2.9,4.3-2.9,7.4c0,3.9,1.4,7,4.1,9.5
	C197.2,358.7,200.5,359.9,204.5,359.9z"/>
<path class="st0" d="M308.4,376.2c-8.8,0-16.5-1.9-23.2-5.6c-6.7-3.7-11.8-9-15.4-15.9c-3.6-6.9-5.4-14.9-5.4-24
	c0-9.1,1.9-17.2,5.7-24.3c3.8-7,9.1-12.5,16-16.3c6.9-3.9,14.7-5.8,23.6-5.8c4.7,0,9.4,0.7,14.2,2c4.8,1.3,8.9,3.1,12.5,5.4
	c3.9,2.5,5.8,5.7,5.8,9.6c0,2.6-0.6,4.8-1.9,6.4c-1.3,1.6-2.9,2.4-5,2.4c-1.3,0-2.7-0.3-4.2-0.9c-1.4-0.6-2.9-1.3-4.3-2.2
	c-2.6-1.6-5.2-2.8-7.6-3.7c-2.4-0.9-5.2-1.4-8.3-1.4c-7.5,0-13.2,2.4-17.2,7.3c-4,4.9-6,11.9-6,21c0,9,2,16,6,20.8
	c4,4.9,9.8,7.3,17.2,7.3c3,0,5.7-0.5,8-1.4c2.3-0.9,5-2.1,7.9-3.7c1.8-1.1,3.4-1.9,4.7-2.4c1.3-0.5,2.6-0.8,4-0.8
	c1.9,0,3.5,0.8,4.9,2.5c1.3,1.7,2,3.8,2,6.3c0,2-0.5,3.8-1.4,5.3c-0.9,1.5-2.4,2.9-4.4,4.1c-3.7,2.4-8.1,4.3-13,5.7
	C318.6,375.5,313.6,376.2,308.4,376.2z"/>
<path class="st0" d="M462.6,284.3c9.6,0,17,2.9,22.1,8.6c5.1,5.7,7.7,15,7.7,27.7V365c0,3.5-1.1,6.2-3.2,8c-2.1,1.9-4.8,2.8-8.2,2.8
	c-3.2,0-5.9-0.9-8-2.8c-2.1-1.9-3.2-4.5-3.2-8v-44.4c0-6.6-1.2-11.3-3.5-14.2c-2.3-2.8-5.9-4.2-10.7-4.2c-5.9,0-10.6,2-14.1,6
	c-3.5,4-5.2,9.5-5.2,16.5V365c0,3.5-1.1,6.2-3.2,8c-2.1,1.9-4.8,2.8-8,2.8c-3.2,0-6-0.9-8.1-2.8c-2.2-1.9-3.2-4.5-3.2-8v-44.4
	c0-6.6-1.2-11.3-3.5-14.2c-2.3-2.8-5.9-4.2-10.7-4.2c-5.9,0-10.6,2-14,6c-3.4,4-5.1,9.5-5.1,16.5V365c0,3.5-1.1,6.2-3.2,8
	c-2.2,1.9-4.9,2.8-8.1,2.8c-3.2,0-5.9-0.9-8-2.8c-2.1-1.9-3.2-4.5-3.2-8v-69.8c0-3.4,1.1-6,3.2-7.8c2.2-1.8,4.9-2.7,8.1-2.7
	c3.1,0,5.7,0.9,7.7,2.6c2,1.7,3,4.2,3,7.5v4.3c2.8-4.8,6.5-8.5,11.1-11c4.6-2.5,10-3.8,16-3.8c13.2,0,22.1,5.5,26.5,16.6
	c2.6-5.1,6.6-9.1,11.7-12.1C450.3,285.8,456.1,284.3,462.6,284.3z"/>
<path class="st0" d="M330.9,28.9c17.8,0.2,35.5,7.4,48.2,20C457,126.2,534.3,204,611.8,281.6c20,20.1,25.9,52.8,13.5,78.9
	c-3.3,6.9-7.8,13.2-13.2,18.7C534.8,457,457,534.3,379.4,611.8c-20.1,20-52.8,25.9-78.9,13.5c-6.9-3.3-13.2-7.8-18.7-13.2
	C204,534.8,126.7,457,49.1,379.4c-20-20.2-25.8-53-13.5-78.9c3.3-6.9,7.8-13.2,13.2-18.7C126.2,204,204,126.7,281.6,49.2
	c12.6-12.5,30.2-20,48.1-20.2C330.1,28.9,330.5,28.9,330.9,28.9z M330.4,89.8c-2.1,0-4.3,0.9-5.8,2.4
	C247,169.4,169.7,247.1,92.3,324.6c-3.1,3.1-3.2,8.6-0.1,11.8c77.2,77.7,154.9,154.9,232.3,232.3c3.1,3.1,8.6,3.2,11.8,0.1
	c77.7-77.2,154.9-154.9,232.3-232.3c3.1-3.1,3.2-8.6,0.1-11.8C491.6,247,413.9,169.8,336.4,92.3C334.8,90.7,332.6,89.8,330.4,89.8z"
	/>
</svg>
